<svg xmlns="http://www.w3.org/2000/svg" xmlns:xlink="http://www.w3.org/1999/xlink" version="1.1" id="Layer_1" x="0px" y="0px" viewBox="0 0 100 100" style="enable-background:new 0 0 100 100;" xml:space="preserve">
<g>
	<path style="fill:#FCBA7F;" d="M82.844,47c-1.178,0.593-2.555,1-4.032,1c-3.213,0-5.945-1.625-7.145-3.932   C70.185,44.664,68.57,45,66.875,45C59.764,45,54,39.236,54,32.125c0-1.707,0.34-3.332,0.943-4.823   c0.012-0.125,0.028-0.232,0.042-0.349C52.675,26.125,51,23.662,51,20.75c0-1.365,0.37-2.631,0.999-3.677   C51.342,17.033,50.668,17,50,17c-18.225,0-33,14.775-33,33s14.775,33,33,33s33-14.775,33-33C83,49.007,82.935,47.97,82.844,47z"></path>
	<path style="fill:#1F212B;" d="M50,84c-18.748,0-34-15.252-34-34s15.252-34,34-34c0.688,0,1.383,0.033,2.061,0.075   c0.349,0.021,0.661,0.224,0.824,0.533c0.163,0.31,0.152,0.681-0.028,0.98C52.296,18.52,52,19.613,52,20.75   c0,2.397,1.366,4.561,3.322,5.261c0.438,0.157,0.709,0.595,0.656,1.057l-0.039,0.327c-0.009,0.097-0.032,0.192-0.068,0.282   C55.292,29.104,55,30.601,55,32.125C55,38.673,60.327,44,66.875,44c1.514,0,3.001-0.289,4.42-0.859   c0.479-0.193,1.023,0.01,1.26,0.466c1.543,2.967,5.979,4.443,9.84,2.5c0.295-0.147,0.646-0.141,0.934,0.019   c0.29,0.16,0.48,0.453,0.511,0.782C83.946,48.047,84,49.088,84,50C84,68.748,68.748,84,50,84z M50,18c-17.645,0-32,14.355-32,32   s14.355,32,32,32s32-14.355,32-32c0-0.475-0.016-0.989-0.047-1.539c-4.106,1.419-8.618-0.126-10.714-3.17   C69.826,45.762,68.362,46,66.875,46C59.224,46,53,39.776,53,32.125c0-1.574,0.267-3.122,0.793-4.61   C51.492,26.284,50,23.679,50,20.75c0-0.948,0.158-1.876,0.463-2.745C50.309,18.002,50.154,18,50,18z"></path>
</g>
<g>
	<g>
		<circle style="fill:#B77748;" cx="71" cy="20" r="3.5"></circle>
		<circle style="fill:#B77748;" cx="81.5" cy="35.5" r="2"></circle>
		<circle style="fill:#B77748;" cx="68" cy="31" r="2.5"></circle>
		<circle style="fill:#B77748;" cx="43" cy="36" r="2.5"></circle>
		<circle style="fill:#B77748;" cx="48" cy="51" r="2.5"></circle>
		<circle style="fill:#B77748;" cx="36" cy="63" r="3.5"></circle>
		<circle style="fill:#B77748;" cx="58" cy="64" r="4.5"></circle>
		<circle style="fill:#B77748;" cx="32.5" cy="46.5" r="5"></circle>
	</g>
	<g>
		<path style="fill:#1F212B;" d="M71,24c-2.206,0-4-1.794-4-4s1.794-4,4-4s4,1.794,4,4S73.206,24,71,24z M71,17    c-1.654,0-3,1.346-3,3s1.346,3,3,3s3-1.346,3-3S72.654,17,71,17z"></path>
		<path style="fill:#1F212B;" d="M81.5,38c-1.378,0-2.5-1.122-2.5-2.5s1.122-2.5,2.5-2.5s2.5,1.122,2.5,2.5S82.878,38,81.5,38z     M81.5,34c-0.827,0-1.5,0.673-1.5,1.5s0.673,1.5,1.5,1.5s1.5-0.673,1.5-1.5S82.327,34,81.5,34z"></path>
		<path style="fill:#1F212B;" d="M68,34c-1.654,0-3-1.346-3-3s1.346-3,3-3s3,1.346,3,3S69.654,34,68,34z M68,29    c-1.103,0-2,0.897-2,2s0.897,2,2,2s2-0.897,2-2S69.103,29,68,29z"></path>
		<path style="fill:#1F212B;" d="M43,39c-1.654,0-3-1.346-3-3s1.346-3,3-3s3,1.346,3,3S44.654,39,43,39z M43,34    c-1.103,0-2,0.897-2,2s0.897,2,2,2s2-0.897,2-2S44.103,34,43,34z"></path>
		<path style="fill:#1F212B;" d="M48,54c-1.654,0-3-1.346-3-3s1.346-3,3-3s3,1.346,3,3S49.654,54,48,54z M48,49    c-1.103,0-2,0.897-2,2s0.897,2,2,2s2-0.897,2-2S49.103,49,48,49z"></path>
		<path style="fill:#1F212B;" d="M36,67c-2.206,0-4-1.794-4-4s1.794-4,4-4s4,1.794,4,4S38.206,67,36,67z M36,60    c-1.654,0-3,1.346-3,3s1.346,3,3,3s3-1.346,3-3S37.654,60,36,60z"></path>
		<path style="fill:#1F212B;" d="M58,69c-2.757,0-5-2.243-5-5s2.243-5,5-5s5,2.243,5,5S60.757,69,58,69z M58,60    c-2.206,0-4,1.794-4,4s1.794,4,4,4s4-1.794,4-4S60.206,60,58,60z"></path>
		<path style="fill:#1F212B;" d="M32.5,52c-3.033,0-5.5-2.467-5.5-5.5s2.467-5.5,5.5-5.5s5.5,2.467,5.5,5.5S35.533,52,32.5,52z     M32.5,42c-2.481,0-4.5,2.019-4.5,4.5s2.019,4.5,4.5,4.5s4.5-2.019,4.5-4.5S34.981,42,32.5,42z"></path>
	</g>
</g>
<g>
	<path style="fill:#1F212B;" d="M73.862,66c-0.093,0-0.188-0.026-0.272-0.081c-0.231-0.15-0.297-0.46-0.147-0.692   c1.037-1.597,1.897-3.25,2.557-4.912c0.102-0.256,0.393-0.382,0.649-0.28s0.382,0.393,0.28,0.649   c-0.684,1.724-1.575,3.436-2.648,5.088C74.186,65.92,74.025,66,73.862,66z"></path>
	<path style="fill:#1F212B;" d="M50,79c-0.276,0-0.5-0.224-0.5-0.5S49.724,78,50,78c8.167,0,15.909-3.581,21.24-9.825   c0.181-0.21,0.496-0.233,0.705-0.056c0.21,0.179,0.235,0.495,0.056,0.705C66.479,75.291,58.46,79,50,79z"></path>
	<path style="fill:#1F212B;" d="M77.481,58c-0.043,0-0.088-0.005-0.132-0.018c-0.267-0.073-0.424-0.347-0.351-0.614   c0.273-1.005,0.489-1.996,0.64-2.947c0.043-0.272,0.295-0.458,0.572-0.415c0.272,0.043,0.458,0.299,0.415,0.572   c-0.157,0.986-0.379,2.013-0.663,3.053C77.903,57.854,77.701,58,77.481,58z"></path>
</g>
</svg>
