<svg id="Purple" xmlns="http://www.w3.org/2000/svg" viewBox="0 0 290 141"><defs><style>.cls-1{fill:#5a17ee;}</style></defs><title>rasa_logo_horizontal_purple</title><g id="logo"><path class="cls-1" d="M210.5,29V79.11h12V64h26V79h12V29Zm38,23h-26V41h26Z"/><polygon class="cls-1" points="199.5 56.5 199.5 69 199.5 79 150.5 79 150.5 67 187.5 67 187.5 60 150.5 60 150.5 49 150.5 36.5 150.5 29 199.5 29 199.5 41 162.5 41 162.5 48 199.5 48 199.5 56.5 199.5 56.5"/><path class="cls-1" d="M89.5,29V79.11h12V64h26V79h12V29Zm38,23h-26V41h26Z"/><path class="cls-1" d="M62.41,59.94l15.36-5.59.73-.29V29h-49V79H41.34V67.59l9-3.26L63.89,79H78.71Zm-21-5.12V41H66.5v4.68Z"/><path class="cls-1" d="M247.15,90.54h23.91V18.44H18.94v72.1h180l48.19,23.82V90.54ZM5.5,5h279v99H260.59v32l-64.77-32H5.5Z"/></g></svg>