<svg width="32" height="29" xmlns="http://www.w3.org/2000/svg"><path d="M23 12.75c0 .948-.346 1.768-1.04 2.46-.692.694-1.512 1.04-2.46 1.04H9.11l-4.485 3.39a.482.482 0 01-.574.055.529.529 0 01-.301-.492V16.25c-.948 0-1.768-.346-2.46-1.04-.694-.692-1.04-1.512-1.04-2.46V4c0-.948.346-1.768 1.04-2.46C1.981.845 2.801.5 3.75.5H19.5c.948 0 1.768.346 2.46 1.04C22.655 2.231 23 3.051 23 4v8.75zm5.25-3.5c.948 0 1.768.346 2.46 1.04.694.692 1.04 1.512 1.04 2.46v8.75c0 .948-.346 1.768-1.04 2.46-.692.694-1.512 1.04-2.46 1.04H26.5v2.953c0 .219-.1.383-.3.492a.482.482 0 01-.575-.054L21.141 25H14.25c-.948 0-1.768-.346-2.46-1.04-.694-.692-1.04-1.512-1.04-2.46V18h8.75c1.458 0 2.698-.51 3.719-1.531 1.02-1.021 1.531-2.26 1.531-3.719v-3.5h3.5z" fill="#FFF" fill-rule="nonzero"/></svg>