<?xml version="1.0" standalone="no"?>
<!DOCTYPE svg PUBLIC "-//W3C//DTD SVG 1.1//EN" "http://www.w3.org/Graphics/SVG/1.1/DTD/svg11.dtd">
<svg xmlns="http://www.w3.org/2000/svg">
<defs >
<font id="IBMPlexMono" horiz-adv-x="600" ><font-face
    font-family="IBM Plex Mono"
    units-per-em="1000"
    panose-1="2 11 5 9 5 2 3 0 2 3"
    ascent="1025"
    descent="-275"
    alphabetic="0" />
<glyph unicode=" " glyph-name="space" />
<glyph unicode="!" glyph-name="exclam" d="M284 233L256 495V698H344V495L316 233H284ZM300 -9Q259 -9 243 8T226 51V69Q226 95 242 112T300 129Q341 129 357 112T374 69V51Q374 25 358 8T300 -9Z" />
<glyph unicode="&quot;" glyph-name="quotedbl" d="M430 463V740H506V463H430ZM351 463V740H427V463H351Z" />
<glyph unicode="#" glyph-name="numbersign" d="M148 216H16V282H160L183 416H52V482H195L233 698H306L183 0H110L148 216ZM417 698H490L452 482H584V416H440L417 282H548V216H405L367 0H294L417 698Z" />
<glyph unicode="$" glyph-name="dollar" d="M279 -11Q196 -6 141 27T50 111L111 161Q147 116 187 91T280 61V322L257 326Q205 335 170 353T114 397T84 454T75 520Q75 605 129 653T279 709V811H341V709Q410 704 460 676T549 596L486 551Q459 587 425 609T340 636V391L370
386Q421 377 456 359T512 316T543 258T552 191Q552 103 498 50T341 -11V-113H279V-11ZM156 520Q156 471 184 443T280 401V637Q220 631 188 602T156 520ZM471 190Q471 244 441 272T340 312V62Q403 69 437 102T471 190Z" />
<glyph unicode="%" glyph-name="percent" d="M169 356Q103 356 62 400T20 533Q20 621 61 665T169 710Q235 710 276 666T318 533Q318 445 277 401T169 356ZM169 410Q205 410 227 435T250 508V558Q250 606 228 631T169 656Q133 656 111 631T88 558V508Q88 460 110
435T169 410ZM510 698H582L422 398H350L510 698ZM178 300H250L90 0H18L178 300ZM431 -12Q365 -12 324 32T282 165Q282 253 323 297T431 342Q497 342 538 298T580 165Q580 77 539 33T431 -12ZM431 42Q467 42 489 67T512 140V190Q512 238 490 263T431 288Q395 288
373 263T350 190V140Q350 92 372 67T431 42Z" />
<glyph unicode="&amp;" glyph-name="ampersand" d="M217 -12Q171 -12 136 3T76 44T38 106T25 181Q25 207 31 235T52 289T91 340T154 384Q126 420 108 458T89 541Q89 579 103 610T142 663T200 698T270 710Q303 710 330 701T379 676T414 642T436 604L370 570Q357
601 331 621T266 642Q221 642 195 615T168 544V536Q168 520 172 505T184 474T206 438T239 395L329 284L402 194H407Q414 233 416 283T420 381H561V314H486Q483 290 480 269T473 228T464 188T450 144L572 0H477L390 103H385Q371 51 328 20T217 -12ZM238 59Q281 59
314 77T366 127L192 337Q146 308 127 272T108 192V177Q108 123 144 91T238 59Z" />
<glyph unicode="&apos;" glyph-name="quotesingle" d="M262 463V740H338V463H262Z" />
<glyph unicode="(" glyph-name="parenleft" d="M205 311Q205 384 221 451T266 577T333 681T413 760H494Q450 727 412 684T344 589T297 478T280 354V268Q280 204 297 145T343 34T411 -61T494 -138H413Q371 -107 333 -60T267 45T222 170T205 311Z" />
<glyph unicode=")" glyph-name="parenright" d="M395 311Q395 238 379 171T334 45T267 -60T187 -138H106Q149 -105 188 -62T256 33T303 144T320 268V354Q320 418 303 477T257 588T188 683T106 760H187Q229 728 267 682T333 577T378 452T395 311Z" />
<glyph unicode="*" glyph-name="asterisk" d="M175 72L118 114L242 284L43 350L64 416L263 352V568H337V352L536 416L557 350L358 284L482 114L425 72L300 244L175 72Z" />
<glyph unicode="+" glyph-name="plus" d="M262 62V271H62V339H262V548H338V339H538V271H338V62H262Z" />
<glyph unicode="," glyph-name="comma" d="M257 136H386L271 -141H204L257 136Z" />
<glyph unicode="-" glyph-name="hyphen" d="M155 262V346H445V262H155Z" />
<glyph unicode="." glyph-name="period" d="M300 -9Q259 -9 243 8T226 51V69Q226 95 242 112T300 129Q341 129 357 112T374 69V51Q374 25 358 8T300 -9Z" />
<glyph unicode="/" glyph-name="slash" d="M90 -138L438 760H510L162 -138H90Z" />
<glyph unicode="0" glyph-name="zero" d="M300 -12Q236 -12 190 12T114 83T70 196T56 349Q56 434 70 501T114 615T190 685T300 710Q364 710 410 686T486 615T530 502T544 349Q544 263 530 196T486 83T410 13T300 -12ZM300 61Q342 61 372 77T420 124T448 196T457
292V406Q457 458 448 501T421 574T372 620T300 637Q258 637 228 621T180 574T152 501T143 406V292Q143 239 152 197T179 124T228 78T300 61ZM300 290Q265 290 252 304T238 338V360Q238 380 251 394T300 408Q335 408 348 394T362 360V338Q362 318 349 304T300 290Z"
/>
<glyph unicode="1" glyph-name="one" d="M85 0V73H285V636H278L102 472L53 525L238 698H369V73H553V0H85Z" />
<glyph unicode="2" glyph-name="two" d="M537 0H71V86L304 296Q355 342 388 390T421 493V505Q421 568 388 602T290 637Q226 637 192 605T140 518L65 546Q75 577 92 606T137 659T202 696T292 710Q344 710 384 695T452 653T494 589T509 508Q509 468 498 433T466
366T417 304T353 243L158 73H537V0Z" />
<glyph unicode="3" glyph-name="three" d="M270 402Q343 402 379 434T416 518V525Q416 581 381 609T288 637Q232 637 198 613T141 548L78 596Q91 617 110 637T154 674T213 700T290 710Q335 710 374 699T442 665T487 609T504 534Q504 500 494 473T465 426T421 392T368
371V367Q397 361 424 348T472 313T505 261T518 191Q518 146 501 109T452 45T376 3T277 -12Q231 -12 196 -2T133 25T85 63T48 107L111 155Q125 134 140 117T174 88T219 68T277 61Q351 61 390 95T430 192V200Q430 262 392 296T276 330H193V402H270Z" />
<glyph unicode="4" glyph-name="four" d="M378 0V137H34V211L336 698H458V206H562V137H458V0H378ZM109 206H378V633H374L109 206Z" />
<glyph unicode="5" glyph-name="five" d="M501 625H189L169 358H176Q202 393 234 413T322 434Q368 434 406 420T473 377T517 310T533 219Q533 168 517 126T470 53T395 5T295 -12Q251 -12 217 -2T156 25T109 63T73 107L136 155Q150 134 164 117T198 88T241 68T297
61Q369 61 407 100T446 208V216Q446 285 407 324T295 363Q245 363 218 346T167 304L96 314L121 698H501V625Z" />
<glyph unicode="6" glyph-name="six" d="M301 -12Q246 -12 202 6T128 59T81 144T64 256Q64 334 87 402T147 527T229 627T317 698H425Q368 657 324 618T245 537T188 446T150 336L155 334Q180 377 221 405T327 434Q373 434 411 419T477 376T520 308T536 219Q536
168 519 126T472 53T398 5T301 -12ZM300 59Q372 59 411 98T451 208V216Q451 287 412 326T300 365Q228 365 189 326T149 216V208Q149 137 188 98T300 59Z" />
<glyph unicode="7" glyph-name="seven" d="M173 0L446 626H140V496H65V698H531V624L263 0H173Z" />
<glyph unicode="8" glyph-name="eight" d="M300 -12Q239 -12 193 3T117 46T71 110T55 190Q55 262 94 304T197 363V371Q141 390 109 432T76 535Q76 615 135 662T300 710Q406 710 465 663T524 535Q524 475 492 433T403 371V363Q467 346 506 304T545 190Q545 147
530 110T483 46T407 4T300 -12ZM300 59Q374 59 416 92T458 185V207Q458 267 417 300T300 333Q225 333 184 300T142 207V185Q142 125 184 92T300 59ZM300 401Q368 401 403 430T439 513V527Q439 581 403 610T300 639Q234 639 198 610T161 527V513Q161 459 196 430T300
401Z" />
<glyph unicode="9" glyph-name="nine" d="M536 442Q536 364 513 296T452 171T371 71T283 0H175Q232 41 276 80T355 161T412 252T450 362L445 364Q419 321 379 293T273 264Q227 264 189 279T123 322T80 389T64 479Q64 530 80 572T128 645T202 693T299 710Q354 710
398 692T472 639T519 554T536 442ZM300 333Q372 333 411 372T451 482V490Q451 561 412 600T300 639Q228 639 189 600T149 490V482Q149 411 188 372T300 333Z" />
<glyph unicode=":" glyph-name="colon" d="M300 -9Q259 -9 243 8T226 51V69Q226 95 242 112T300 129Q341 129 357 112T374 69V51Q374 25 358 8T300 -9ZM300 387Q259 387 243 404T226 447V465Q226 491 242 508T300 525Q341 525 357 508T374 465V447Q374 421 358
404T300 387Z" />
<glyph unicode=";" glyph-name="semicolon" d="M257 136H386L271 -141H204L257 136ZM300 387Q259 387 243 404T226 447V465Q226 491 242 508T300 525Q341 525 357 508T374 465V447Q374 421 358 404T300 387Z" />
<glyph unicode="&lt;" glyph-name="less" d="M85 265V345L515 594V511L160 310V302L515 101V16L85 265Z" />
<glyph unicode="=" glyph-name="equal" d="M62 372V440H538V372H62ZM62 172V240H538V172H62Z" />
<glyph unicode="&gt;" glyph-name="greater" d="M85 99L440 300V308L85 509V594L515 345V265L85 16V99Z" />
<glyph unicode="?" glyph-name="question" d="M239 215V372Q325 376 374 409T423 511V525Q423 581 390 609T298 637Q238 637 202 604T152 520L77 548Q87 581 105 610T150 662T215 697T301 710Q349 710 387 697T453 659T495 599T510 521Q510 474 493 439T449 378T388
338T318 316V215H239ZM282 -9Q241 -9 225 8T208 51V69Q208 95 224 112T282 129Q323 129 339 112T356 69V51Q356 25 340 8T282 -9Z" />
<glyph unicode="@" glyph-name="at" d="M454 -112H331Q255 -112 204 -87T121 -10T76 119T62 300Q62 416 77 494T123 621T197 689T301 710Q361 710 403 691T473 639T512 561T525 463V91H454V148H449Q439 122 416 101T349 79Q288 79 252 130T216 293Q216 404 252
456T349 508Q371 508 387 502T416 486T436 464T449 439H454V463Q454 548 419 597T303 646Q214 646 176 578T137 358V229Q137 171 145 121T174 33T233 -26T331 -48H454V-112ZM375 139Q411 139 432 159T454 217V370Q454 408 433 428T375 448Q333 448 312 420T290
324V263Q290 196 311 168T375 139Z" />
<glyph unicode="A" glyph-name="A" d="M481 0L422 199H177L118 0H31L245 698H356L570 0H481ZM304 609H295L197 272H402L304 609Z" />
<glyph unicode="B" glyph-name="B" d="M88 698H325Q415 698 466 649T517 518Q517 455 487 419T408 368V365Q467 351 505 313T543 201Q543 159 529 122T490 58T430 16T355 0H88V698ZM330 73Q388 73 421 99T454 179V220Q454 273 421 299T330 326H172V73H330ZM316
395Q369 395 399 418T429 490V529Q429 577 399 601T316 625H172V395H316Z" />
<glyph unicode="C" glyph-name="C" d="M323 -12Q195 -12 133 81T70 349Q70 524 132 617T323 710Q371 710 406 697T466 662T508 613T538 557L466 524Q457 547 445 567T417 603T378 628T323 637Q240 637 200 574T159 406V292Q159 187 199 124T323 61Q355 61 377
70T416 94T445 130T466 174L538 141Q525 112 508 85T466 36T406 1T323 -12Z" />
<glyph unicode="D" glyph-name="D" d="M95 698H290Q418 698 481 610T544 349Q544 176 481 88T290 0H95V698ZM286 73Q370 73 412 131T455 295V403Q455 509 413 567T286 625H179V73H286Z" />
<glyph unicode="E" glyph-name="E" d="M90 0V698H520V625H174V390H508V317H174V73H520V0H90Z" />
<glyph unicode="F" glyph-name="F" d="M90 0V698H530V625H174V390H500V317H174V0H90Z" />
<glyph unicode="G" glyph-name="G" d="M444 93H439Q430 73 418 54T388 21T343 -3T281 -12Q167 -12 112 80T56 344Q56 524 117 617T305 710Q354 710 390 697T451 662T494 613T522 557L450 524Q441 547 430 567T402 603T362 628T308 637Q224 637 185 574T145 406V298Q145
245 153 202T179 126T227 77T300 59Q368 59 406 100T444 206V278H297V345H522V0H444V93Z" />
<glyph unicode="H" glyph-name="H" d="M436 317H164V0H80V698H164V390H436V698H520V0H436V317Z" />
<glyph unicode="I" glyph-name="I" d="M84 0V67H258V631H84V698H516V631H342V67H516V0H84Z" />
<glyph unicode="J" glyph-name="J" d="M480 698V181Q480 137 465 101T423 40T357 2T274 -12Q194 -12 142 29T74 146L154 163Q159 142 167 124T190 92T226 70T276 62Q333 62 364 94T396 196V625H144V698H480Z" />
<glyph unicode="K" glyph-name="K" d="M269 342L169 224V0H85V698H169V334H172L264 450L470 698H571L326 404L578 0H480L269 342Z" />
<glyph unicode="L" glyph-name="L" d="M120 0V698H204V73H535V0H120Z" />
<glyph unicode="M" glyph-name="M" d="M455 350V571H447L300 212L153 571H145V350V0H68V698H176L299 390H305L428 698H532V0H455V350Z" />
<glyph unicode="N" glyph-name="N" d="M163 591H156V0H80V698H199L437 113H444V698H520V0H401L163 591Z" />
<glyph unicode="O" glyph-name="O" d="M300 -12Q236 -12 190 12T114 83T70 196T56 349Q56 434 70 501T114 615T190 685T300 710Q364 710 410 686T486 615T530 502T544 349Q544 263 530 196T486 83T410 13T300 -12ZM300 61Q342 61 371 77T419 124T446 196T455 292V406Q455
458 447 501T419 574T371 620T300 637Q258 637 229 621T181 574T154 501T145 406V292Q145 239 153 197T181 124T229 78T300 61Z" />
<glyph unicode="P" glyph-name="P" d="M90 0V698H344Q441 698 492 645T543 497Q543 402 492 349T344 296H174V0H90ZM174 369H342Q395 369 424 395T454 471V523Q454 572 425 598T342 625H174V369Z" />
<glyph unicode="Q" glyph-name="Q" d="M491 -164H374Q315 -164 288 -131T260 -46V-9Q207 -2 169 25T105 98T68 207T56 349Q56 434 70 501T114 615T190 685T300 710Q364 710 410 686T486 615T530 502T544 349Q544 192 495 99T340 -9V-96H491V-164ZM300 61Q342 61
371 77T419 124T446 196T455 292V406Q455 458 447 501T419 574T371 620T300 637Q258 637 229 621T181 574T154 501T145 406V292Q145 239 153 197T181 124T229 78T300 61Z" />
<glyph unicode="R" glyph-name="R" d="M174 0H90V698H344Q441 698 492 645T543 497Q543 412 499 361T371 302L549 0H455L285 298H174V0ZM342 369Q395 369 424 395T454 471V523Q454 572 425 598T342 625H174V369H342Z" />
<glyph unicode="S" glyph-name="S" d="M298 -12Q204 -12 144 22T45 111L106 161Q147 110 192 85T301 60Q377 60 417 95T457 193Q457 244 428 272T327 313L249 326Q198 335 164 353T108 396T78 452T69 516Q69 612 132 661T302 710Q386 710 443 682T536 603L477
552Q448 590 407 614T301 638Q230 638 192 608T154 518Q154 471 182 442T285 399L360 386Q411 377 446 359T502 316T533 260T542 195Q542 98 479 43T298 -12Z" />
<glyph unicode="T" glyph-name="T" d="M342 625V0H258V625H25V698H575V625H342Z" />
<glyph unicode="U" glyph-name="U" d="M164 698V279Q164 228 167 188T183 120T223 76T300 61Q349 61 376 76T417 119T433 188T436 279V698H520V299Q520 221 513 163T482 66T415 8T300 -12Q229 -12 186 7T119 66T88 163T80 299V698H164Z" />
<glyph unicode="V" glyph-name="V" d="M243 0L36 698H125L224 349L299 85H304L379 349L478 698H564L357 0H243Z" />
<glyph unicode="W" glyph-name="W" d="M90 0L35 698H110L139 298L154 87H162L254 516H348L440 87H448L463 298L492 698H565L510 0H389L304 417H296L211 0H90Z" />
<glyph unicode="X" glyph-name="X" d="M575 0H480L397 139L305 291H301L206 139L118 0H26L254 356L39 698H134L215 563L302 422H306L392 563L476 698H568L352 357L575 0Z" />
<glyph unicode="Y" glyph-name="Y" d="M258 0V274L17 698H113L213 516L298 357H302L389 516L489 698H583L342 274V0H258Z" />
<glyph unicode="Z" glyph-name="Z" d="M552 0H48V75L443 625H65V698H535V623L139 73H552V0Z" />
<glyph unicode="[" glyph-name="bracketleft" d="M225 -138V760H505V698H294V-76H505V-138H225Z" />
<glyph unicode="\" glyph-name="backslash" d="M438 -138L90 760H162L510 -138H438Z" />
<glyph unicode="]" glyph-name="bracketright" d="M375 760V-138H95V-76H306V698H95V760H375Z" />
<glyph unicode="^" glyph-name="asciicircum" d="M489 287L300 629H296L107 287L45 318L255 698H345L555 318L489 287Z" />
<glyph unicode="_" glyph-name="underscore" d="M60 -169V-95H540V-169H60Z" />
<glyph unicode="`" glyph-name="grave" d="M187 744L260 779L345 609L293 585L187 744Z" />
<glyph unicode="a" glyph-name="a" d="M495 0Q448 0 428 24T403 84H398Q381 39 344 14T243 -12Q162 -12 114 30T66 145Q66 217 118 256T288 295H398V346Q398 403 366 431T275 460Q223 460 190 440T137 384L83 424Q93 444 110 463T152 496T209 519T280 528Q371
528 424 482T478 354V70H550V0H495ZM257 55Q288 55 313 62T358 82T387 112T398 150V235H288Q216 235 183 215T150 157V136Q150 96 178 76T257 55Z" />
<glyph unicode="b" glyph-name="b" d="M95 740H175V432H179Q229 528 338 528Q433 528 486 457T540 258Q540 130 487 59T338 -12Q229 -12 179 84H175V0H95V740ZM307 59Q377 59 415 101T454 214V302Q454 372 416 414T307 457Q280 457 256 450T214 430T186 397T175
351V165Q175 139 185 120T214 87T256 66T307 59Z" />
<glyph unicode="c" glyph-name="c" d="M318 -12Q262 -12 219 7T145 62T100 147T84 258Q84 319 100 369T146 454T219 509T317 528Q392 528 439 495T508 409L444 375Q430 415 398 437T317 459Q282 459 255 448T208 415T180 365T170 302V214Q170 180 179 151T208
101T255 69T319 57Q371 57 405 81T459 147L516 108Q493 56 445 22T318 -12Z" />
<glyph unicode="d" glyph-name="d" d="M425 84H421Q371 -12 262 -12Q167 -12 114 59T60 258Q60 386 113 457T262 528Q371 528 421 432H425V740H505V0H425V84ZM293 59Q320 59 344 66T386 86T414 119T425 165V351Q425 377 415 396T386 429T344 450T293 457Q223 457
185 415T146 302V214Q146 144 184 102T293 59Z" />
<glyph unicode="e" glyph-name="e" d="M309 -12Q253 -12 209 7T133 61T84 146T67 257Q67 319 84 369T133 454T207 509T304 528Q356 528 398 509T471 457T517 377T533 276V238H151V214Q151 180 162 151T193 101T243 69T309 57Q361 57 399 81T457 147L516 107Q493
55 440 22T309 -12ZM304 462Q271 462 243 450T195 417T163 368T151 305V298H447V309Q447 343 437 371T408 419T363 451T304 462Z" />
<glyph unicode="f" glyph-name="f" d="M83 68H257V448H73V516H257V622Q257 674 284 707T371 740H544V672H337V516H544V448H337V68H521V0H83V68Z" />
<glyph unicode="g" glyph-name="g" d="M561 -59Q561 -137 496 -174T301 -212Q176 -212 122 -179T67 -84Q67 -42 89 -19T151 15V27Q129 38 117 55T105 98Q105 138 131 158T198 188V192Q150 213 124 254T97 350Q97 389 111 422T151 478T215 515T297 528Q355 528
399 507V516Q399 546 413 566T461 586H556V516H440V481Q468 457 483 424T498 350Q498 311 484 278T443 222T380 185T297 172Q284 172 272 173T248 176Q236 174 223 170T199 158T181 140T174 117Q174 94 197 87T257 79H371Q471 79 516 42T561 -59ZM486 -63Q486 -32
461 -14T374 5H195Q143 -16 143 -65Q143 -99 170 -123T260 -148H338Q408 -148 447 -127T486 -63ZM297 234Q357 234 385 262T414 336V365Q414 411 386 438T297 466Q237 466 209 439T181 365V336Q181 290 209 262T297 234Z" />
<glyph unicode="h" glyph-name="h" d="M98 740H178V432H182Q190 451 202 468T231 499T273 520T329 528Q410 528 459 477T508 331V0H428V317Q428 388 397 422T306 457Q282 457 259 451T218 433T189 402T178 358V0H98V740Z" />
<glyph unicode="i" glyph-name="i" d="M332 630Q297 630 283 644T269 681V697Q269 719 283 733T332 748Q367 748 381 734T395 697V681Q395 659 381 645T332 630ZM106 68H292V448H106V516H372V68H546V0H106V68Z" />
<glyph unicode="j" glyph-name="j" d="M102 -132H352V448H93V516H432V-82Q432 -134 405 -167T318 -200H102V-132ZM392 630Q357 630 343 644T329 681V697Q329 719 343 733T392 748Q427 748 441 734T455 697V681Q455 659 441 645T392 630Z" />
<glyph unicode="k" glyph-name="k" d="M105 740H185V273H189L279 358L451 516H549L335 314L574 0H475L274 268L185 187V0H105V740Z" />
<glyph unicode="l" glyph-name="l" d="M80 68H260V672H80V740H340V68H520V0H80V68Z" />
<glyph unicode="m" glyph-name="m" d="M54 0V516H128V456H132Q144 486 166 507T231 528Q276 528 298 506T325 447H328Q342 482 368 505T440 528Q503 528 524 484T546 358V0H472V345Q472 411 459 436T409 462Q377 462 357 442T337 379V0H263V345Q263 411 250 436T201
462Q169 462 149 442T128 379V0H54Z" />
<glyph unicode="n" glyph-name="n" d="M98 0V516H178V432H182Q190 451 202 468T231 499T273 520T329 528Q410 528 459 477T508 331V0H428V317Q428 388 397 422T306 457Q282 457 259 451T218 433T189 402T178 358V0H98Z" />
<glyph unicode="o" glyph-name="o" d="M300 -12Q246 -12 203 7T129 61T82 146T66 258Q66 319 82 369T128 454T202 509T300 528Q354 528 397 509T471 455T518 369T534 258Q534 196 518 147T472 62T398 7T300 -12ZM300 57Q367 57 408 97T449 221V295Q449 379 408
419T300 459Q233 459 192 419T151 295V221Q151 137 192 97T300 57Z" />
<glyph unicode="p" glyph-name="p" d="M95 516H175V432H179Q229 528 338 528Q433 528 486 457T540 258Q540 130 487 59T338 -12Q229 -12 179 84H175V-200H95V516ZM307 59Q377 59 415 101T454 214V302Q454 372 416 414T307 457Q280 457 256 450T214 430T186 397T175
351V165Q175 139 185 120T214 87T256 66T307 59Z" />
<glyph unicode="q" glyph-name="q" d="M425 84H421Q371 -12 262 -12Q167 -12 114 59T60 258Q60 386 113 457T262 528Q371 528 421 432H425V516H505V-200H425V84ZM293 59Q320 59 344 66T386 86T414 119T425 165V351Q425 377 415 396T386 429T344 450T293 457Q223
457 185 415T146 302V214Q146 144 184 102T293 59Z" />
<glyph unicode="r" glyph-name="r" d="M77 68H228V448H77V516H308V386H313Q329 447 373 481T487 516H559V436H462Q393 436 351 396T308 291V68H508V0H77V68Z" />
<glyph unicode="s" glyph-name="s" d="M306 -12Q225 -12 167 15T67 89L121 136Q158 97 202 76T308 55Q368 55 406 76T445 144Q445 164 438 177T417 199T388 211T354 219L273 231Q246 235 215 242T157 264T114 306T96 374Q96 413 111 441T155 489T221 518T304 528Q374
528 425 506T514 445L462 396Q453 407 440 418T407 439T361 455T301 461Q240 461 208 440T175 379Q175 359 182 346T203 324T232 312T266 304L347 292Q375 288 406 281T463 259T506 217T524 149Q524 72 465 30T306 -12Z" />
<glyph unicode="t" glyph-name="t" d="M325 0Q266 0 239 33T211 118V448H39V516H167Q193 516 203 526T214 563V698H291V516H526V448H291V68H526V0H325Z" />
<glyph unicode="u" glyph-name="u" d="M422 84H418Q410 65 398 48T369 17T327 -4T271 -12Q190 -12 141 39T92 185V516H172V199Q172 128 203 94T294 59Q318 59 341 65T382 83T411 113T422 158V516H502V0H422V84Z" />
<glyph unicode="v" glyph-name="v" d="M249 0L64 516H145L219 300L299 67H303L383 300L457 516H536L351 0H249Z" />
<glyph unicode="w" glyph-name="w" d="M30 516H101L160 70H169L257 516H345L433 70H442L501 516H570L491 0H387L305 432H297L213 0H109L30 516Z" />
<glyph unicode="x" glyph-name="x" d="M61 0L253 262L66 516H162L240 407L302 321H306L366 407L443 516H535L346 263L540 0H444L357 121L298 203H294L237 121L153 0H61Z" />
<glyph unicode="y" glyph-name="y" d="M467 516H547L291 -113Q282 -135 271 -151T245 -178T209 -194T159 -200H83V-132H203L261 10L53 516H135L222 300L299 104H303L380 300L467 516Z" />
<glyph unicode="z" glyph-name="z" d="M85 0V77L418 448H96V516H505V439L172 68H515V0H85Z" />
<glyph unicode="{" glyph-name="braceleft" d="M319 -138Q277 -138 256 -115T235 -56V7Q235 34 240 54T254 90T272 118T291 142Q308 162 314 176T321 207Q321 245 286 262T183 280H105V342H183Q251 342 286 359T321 415Q321 431 315 445T291 480Q282 491 272 503T254
531T241 567T235 615V678Q235 713 256 736T319 760H495V698H304V621Q304 580 316 558T344 515Q361 493 376 470T391 414Q391 372 362 346T281 313V309Q332 302 361 276T391 208Q391 176 376 153T344 107Q328 86 316 64T304 1V-76H495V-138H319Z" />
<glyph unicode="|" glyph-name="bar" d="M265 -138V760H335V-138H265Z" />
<glyph unicode="}" glyph-name="braceright" d="M281 760Q323 760 344 737T365 678V615Q365 588 360 568T346 532T328 504T309 480Q292 460 286 446T279 415Q279 377 314 360T417 342H495V280H417Q349 280 314 263T279 207Q279 191 285 177T309 142Q318 131 328
119T346 90T359 54T365 7V-56Q365 -91 344 -114T281 -138H105V-76H296V1Q296 42 284 64T256 107Q239 129 224 152T209 208Q209 250 238 276T319 309V313Q268 320 239 346T209 414Q209 446 224 469T256 515Q272 536 284 558T296 621V698H105V760H281Z" />
<glyph unicode="~" glyph-name="asciitilde" d="M408 237Q377 237 349 246T295 269Q269 282 243 294T191 306Q162 306 144 287T113 237L52 262Q66 310 101 341T192 373Q223 373 251 364T305 341Q331 328 357 316T409 304Q438 304 456 323T487 373L548 348Q534
300 499 269T408 237Z" />
<glyph unicode="&#xa0;" glyph-name="uni00A0" />
<glyph unicode="&#xa1;" glyph-name="exclamdown" d="M256 -182V21L284 283H316L344 21V-182H256ZM300 387Q259 387 243 404T226 447V465Q226 491 242 508T300 525Q341 525 357 508T374 465V447Q374 421 358 404T300 387Z" />
<glyph unicode="&#xa2;" glyph-name="cent" d="M279 -114V-9Q185 4 135 75T84 258Q84 370 135 441T279 525V630H341V527Q406 522 447 490T508 409L444 375Q431 410 405 431T340 458V58Q383 63 412 86T459 147L516 108Q495 60 452 27T341 -11V-114H279ZM170 214Q170
155 198 114T280 61V455Q226 444 198 403T170 302V214Z" />
<glyph unicode="&#xa3;" glyph-name="sterling" d="M75 0V105Q117 122 135 156T154 237Q154 250 153 262T149 286H52V355H130Q119 389 109 423T98 499Q98 545 114 584T160 651T234 694T332 710Q412 710 464 679T550 596L487 551Q459 592 422 614T327 637Q261 637
223 604T184 494Q184 453 193 420T214 355H415V286H233Q236 266 236 247Q236 216 229 191T209 145T183 109T154 85V80H538V0H75Z" />
<glyph unicode="&#xa5;" glyph-name="yen" d="M75 69H260V255H75V324H216L22 698H115L299 324H303L487 698H578L384 324H525V255H340V69H525V0H75V69Z" />
<glyph unicode="&#xa6;" glyph-name="brokenbar" d="M265 401V760H335V401H265ZM265 -138V221H335V-138H265Z" />
<glyph unicode="&#xa7;" glyph-name="section" d="M487 3Q487 -33 473 -62T432 -112T368 -144T286 -155Q240 -155 196 -142T116 -99L163 -43Q187 -63 218 -74T287 -86Q344 -86 376 -63T408 2Q408 40 381 62T302 99L238 117Q155 140 118 180T81 272Q81 320 110
357T193 415V420Q154 444 136 478T117 552Q117 588 131 617T172 667T236 699T318 710Q364 710 408 697T488 654L441 598Q417 618 386 629T317 641Q260 641 228 618T196 553Q196 515 223 493T302 456L366 438Q449 415 486 375T523 283Q523 235 494 198T411 140V135Q450
111 468 77T487 3ZM444 263Q444 306 415 332T324 375L261 392Q244 396 227 403Q196 382 178 355T160 292Q160 249 189 223T280 180L343 163Q360 159 377 152Q408 173 426 200T444 263Z" />
<glyph unicode="&#xa8;" glyph-name="dieresis" d="M207 618Q176 618 163 631T150 664V678Q150 698 163 711T207 724Q238 724 251 711T264 678V664Q264 644 251 631T207 618ZM393 618Q362 618 349 631T336 664V678Q336 698 349 711T393 724Q424 724 437 711T450
678V664Q450 644 437 631T393 618Z" />
<glyph unicode="&#xa9;" glyph-name="copyright" d="M300 18Q237 18 183 41T88 107T24 211T0 349Q0 425 23 486T87 591T182 657T300 680Q363 680 417 657T512 591T576 487T600 349Q600 272 577 211T513 107T418 41T300 18ZM300 73Q351 73 394 92T469 144T519 223T537
319V379Q537 430 519 475T470 553T395 606T300 625Q249 625 206 606T131 554T81 475T63 379V319Q63 268 81 223T130 145T205 92T300 73ZM305 171Q232 171 192 219T151 349Q151 431 192 479T305 527Q353 527 383 505T431 447L378 418Q367 442 350 456T305 470Q266
470 245 445T223 378V321Q223 279 244 254T306 228Q336 228 354 243T386 283L436 252Q419 217 387 194T305 171Z" />
<glyph unicode="&#xaa;" glyph-name="ordfeminine" d="M429 357Q396 357 382 371T366 410H362Q351 387 324 368T249 349Q195 349 167 376T138 448Q138 502 177 527T289 552H362V580Q362 658 285 658Q250 658 227 644T192 606L150 640Q157 653 169 665T199 688T238
704T288 710Q352 710 388 677T425 583V413H463V357H429ZM287 506Q245 506 223 494T201 459V449Q201 400 262 400Q302 400 332 417T362 465V506H287Z" />
<glyph unicode="&#xab;" glyph-name="guillemotleft" d="M536 56L330 230V310L536 484L561 427L413 270L561 113L536 56ZM509 56L303 230V310L509 484L534 427L386 270L534 113L509 56Z" />
<glyph unicode="&#xac;" glyph-name="logicalnot" d="M453 78V271H62V339H522V78H453Z" />
<glyph unicode="&#xad;" glyph-name="uni00AD" d="M155 262V346H445V262H155Z" />
<glyph unicode="&#xae;" glyph-name="registered" d="M300 346Q262 346 229 360T170 398T131 455T117 528Q117 567 131 600T170 658T228 696T300 710Q338 710 371 696T429 658T468 601T483 528Q483 489 469 456T430 398T372 360T300 346ZM300 387Q329 387 353
396T396 423T424 464T435 518V538Q435 568 425 592T396 633T354 659T300 669Q271 669 247 660T204 633T176 592T165 538V518Q165 488 175 464T204 423T246 397T300 387ZM270 436H230V621H315Q343 621 358 606T374 564Q374 525 337 512L383 436H338L299 506H270V436ZM306
535Q332 535 332 559V566Q332 590 306 590H270V535H306Z" />
<glyph unicode="&#xaf;" glyph-name="overscore" d="M160 705H440V637H160V705Z" />
<glyph unicode="&#xb0;" glyph-name="degree" d="M300 368Q264 368 233 381T179 417T142 471T129 539Q129 575 142 606T178 661T233 697T300 710Q336 710 367 697T421 661T458 607T471 539Q471 503 458 472T422 417T367 381T300 368ZM300 432Q346 432 373 463T401
539Q401 584 374 615T300 646Q254 646 227 615T199 539Q199 494 226 463T300 432Z" />
<glyph unicode="&#xb1;" glyph-name="plusminus" d="M262 152V351H62V419H262V618H338V419H538V351H338V152H262ZM62 0V68H538V0H62Z" />
<glyph unicode="&#xb2;" glyph-name="twosuperior" d="M438 329H166V386L296 491Q325 515 341 538T358 589V595Q358 621 342 636T293 652Q258 652 241 635T215 594L161 614Q167 632 177 648T204 676T244 696T297 704Q359 704 392 674T425 595Q425 551 399 519T330
454L233 379H438V329Z" />
<glyph unicode="&#xb3;" glyph-name="threesuperior" d="M282 546Q320 546 338 560T357 598V602Q357 627 340 640T292 654Q263 654 243 642T209 609L166 643Q183 668 213 686T294 704Q351 704 387 679T424 609Q424 573 401 552T346 524V521Q380 515 405 493T430
431Q430 382 392 353T287 323Q232 323 201 343T151 389L198 423Q212 401 232 387T287 373Q325 373 344 389T364 434V440Q364 495 287 495H242V546H282Z" />
<glyph unicode="&#xb4;" glyph-name="acute" d="M307 585L255 609L340 779L413 744L307 585Z" />
<glyph unicode="&#xb5;" glyph-name="mu" d="M98 -200V516H178V199Q178 59 297 59Q321 59 343 65T383 83T411 113T422 158V516H502V0H422V84H418Q409 64 398 47T370 16T331 -4T278 -12Q203 -12 175 40H171L178 -44V-200H98Z" />
<glyph unicode="&#xb6;" glyph-name="paragraph" d="M270 246Q223 246 183 263T111 310T63 381T45 472Q45 521 62 562T111 634T182 681T270 698H504V-149H432V634H342V-149H270V246Z" />
<glyph unicode="&#xb7;" glyph-name="middot" d="M300 235Q259 235 243 252T226 295V313Q226 339 242 356T300 373Q341 373 357 356T374 313V295Q374 269 358 252T300 235Z" />
<glyph unicode="&#xb8;" glyph-name="cedilla" d="M312 -207Q271 -207 248 -194T213 -166L251 -125Q260 -136 275 -144T312 -153Q331 -153 343 -146T356 -122Q356 -108 343 -98T288 -81L260 -77L279 20H329L313 -61L316 -64Q335 -58 355 -58Q384 -58 403 -75T423
-124Q423 -145 414 -161T390 -187T354 -202T312 -207Z" />
<glyph unicode="&#xb9;" glyph-name="onesuperior" d="M176 329V379H285V644L179 589L154 633L280 698H348V379H446V329H176Z" />
<glyph unicode="&#xba;" glyph-name="ordmasculine" d="M300 349Q224 349 182 397T140 530Q140 614 182 662T300 710Q375 710 417 662T460 530Q460 445 418 397T300 349ZM300 402Q345 402 368 429T391 500V559Q391 602 368 629T300 657Q255 657 232 630T209 559V500Q209
457 232 430T300 402Z" />
<glyph unicode="&#xbb;" glyph-name="guillemotright" d="M67 113L215 270L67 427L92 484L298 310V230L92 56L67 113ZM296 113L444 270L296 427L321 484L527 310V230L321 56L296 113Z" />
<glyph unicode="&#xbc;" glyph-name="onequarter" d="M40 413H134V643L45 598L21 642L129 698H197V413H280V363H40V413ZM510 698H582L422 398H350L510 698ZM178 300H250L90 0H18L178 300ZM477 64H314V123L456 335H538V112H585V64H538V0H477V64ZM477 112V282H474L360
112H477Z" />
<glyph unicode="&#xbd;" glyph-name="onehalf" d="M40 413H134V643L45 598L21 642L129 698H197V413H280V363H40V413ZM510 698H582L422 398H350L510 698ZM178 300H250L90 0H18L178 300ZM329 58L442 148Q496 191 496 238V243Q496 262 483 275T443 289Q417 289 402
275T376 234L323 256Q334 290 364 315T448 341Q505 341 533 313T562 244Q562 202 536 170T472 109L395 50H575V0H329V58Z" />
<glyph unicode="&#xbe;" glyph-name="threequarters" d="M144 357Q92 357 63 378T18 428L65 461Q77 438 94 423T144 408Q173 408 189 421T206 458V465Q206 488 188 499T137 511H102V561H137Q169 561 184 573T200 602V609Q200 629 185 641T144 653Q97 653 72 612L30
646Q48 672 75 688T146 704Q200 704 232 681T264 617Q264 584 244 565T194 540V536Q226 531 248 511T270 456Q270 411 236 384T144 357ZM510 698H582L422 398H350L510 698ZM178 300H250L90 0H18L178 300ZM477 64H314V123L456 335H538V112H585V64H538V0H477V64ZM477
112V282H474L360 112H477Z" />
<glyph unicode="&#xbf;" glyph-name="questiondown" d="M299 -194Q251 -194 213 -181T147 -143T105 -83T90 -5Q90 42 107 77T151 138T212 178T282 200V301H361V144Q275 140 226 107T177 5V-9Q177 -65 210 -93T302 -121Q362 -121 398 -88T448 -4L523 -32Q513 -65
495 -94T450 -146T385 -181T299 -194ZM318 387Q277 387 261 404T244 447V465Q244 491 260 508T318 525Q359 525 375 508T392 465V447Q392 421 376 404T318 387Z" />
<glyph unicode="&#xc0;" glyph-name="Agrave" d="M481 0L422 199H177L118 0H31L245 698H356L570 0H481ZM304 609H295L197 272H402L304 609ZM187 914L260 949L345 779L293 755L187 914Z" />
<glyph unicode="&#xc1;" glyph-name="Aacute" d="M481 0L422 199H177L118 0H31L245 698H356L570 0H481ZM304 609H295L197 272H402L304 609ZM307 755L255 779L340 949L413 914L307 755Z" />
<glyph unicode="&#xc2;" glyph-name="Acircumflex" d="M481 0L422 199H177L118 0H31L245 698H356L570 0H481ZM304 609H295L197 272H402L304 609ZM350 935L461 792L416 761L299 878L182 761L139 792L250 935H350Z" />
<glyph unicode="&#xc3;" glyph-name="Atilde" d="M481 0L422 199H177L118 0H31L245 698H356L570 0H481ZM304 609H295L197 272H402L304 609ZM373 782Q347 782 328 791T293 808Q269 821 253 826T223 832Q206 832 193 825T165 805L132 845Q146 865 169 881T227 898Q253
898 272 889T307 872Q331 859 347 854T377 848Q394 848 407 855T435 875L468 835Q454 815 431 799T373 782Z" />
<glyph unicode="&#xc4;" glyph-name="Adieresis" d="M481 0L422 199H177L118 0H31L245 698H356L570 0H481ZM304 609H295L197 272H402L304 609ZM207 788Q176 788 163 801T150 834V848Q150 868 163 881T207 894Q238 894 251 881T264 848V834Q264 814 251 801T207
788ZM393 788Q362 788 349 801T336 834V848Q336 868 349 881T393 894Q424 894 437 881T450 848V834Q450 814 437 801T393 788Z" />
<glyph unicode="&#xc5;" glyph-name="Aring" d="M481 0L422 199H177L118 0H31L245 698H356L570 0H481ZM304 609H295L197 272H402L304 609ZM300 746Q276 746 255 754T218 778T193 815T184 861Q184 886 193 907T217 943T254 967T300 976Q324 976 345 968T382 944T407
907T416 861Q416 836 407 815T383 779T346 755T300 746ZM300 795Q327 795 342 809T358 850V872Q358 898 343 912T300 927Q273 927 258 913T242 872V850Q242 824 257 810T300 795Z" />
<glyph unicode="&#xc6;" glyph-name="AE" d="M312 201H160L104 0H20L226 698H560V629H392V388H548V319H392V69H560V0H312V201ZM281 638L178 270H312V638H281Z" />
<glyph unicode="&#xc7;" glyph-name="Ccedilla" d="M323 637Q240 637 200 574T159 406V292Q159 187 199 124T323 61Q355 61 377 70T416 94T445 130T466 174L538 141Q525 113 509 86T468 38T410 3T330 -12L321 -61L324 -64Q343 -58 363 -58Q392 -58 411 -75T431
-124Q431 -145 422 -161T398 -187T362 -202T320 -207Q279 -207 256 -194T221 -166L259 -125Q268 -136 283 -144T320 -153Q339 -153 351 -146T364 -122Q364 -108 351 -98T296 -81L268 -77L281 -9Q174 6 122 97T70 349Q70 524 132 617T323 710Q371 710 406 697T466
662T508 613T538 557L466 524Q457 547 445 567T417 603T378 628T323 637Z" />
<glyph unicode="&#xc8;" glyph-name="Egrave" d="M90 0V698H520V625H174V390H508V317H174V73H520V0H90ZM192 914L265 949L350 779L298 755L192 914Z" />
<glyph unicode="&#xc9;" glyph-name="Eacute" d="M90 0V698H520V625H174V390H508V317H174V73H520V0H90ZM312 755L260 779L345 949L418 914L312 755Z" />
<glyph unicode="&#xca;" glyph-name="Ecircumflex" d="M90 0V698H520V625H174V390H508V317H174V73H520V0H90ZM355 935L466 792L421 761L304 878L187 761L144 792L255 935H355Z" />
<glyph unicode="&#xcb;" glyph-name="Edieresis" d="M90 0V698H520V625H174V390H508V317H174V73H520V0H90ZM212 788Q181 788 168 801T155 834V848Q155 868 168 881T212 894Q243 894 256 881T269 848V834Q269 814 256 801T212 788ZM398 788Q367 788 354 801T341
834V848Q341 868 354 881T398 894Q429 894 442 881T455 848V834Q455 814 442 801T398 788Z" />
<glyph unicode="&#xcc;" glyph-name="Igrave" d="M84 0V67H258V631H84V698H516V631H342V67H516V0H84ZM187 914L260 949L345 779L293 755L187 914Z" />
<glyph unicode="&#xcd;" glyph-name="Iacute" d="M84 0V67H258V631H84V698H516V631H342V67H516V0H84ZM307 755L255 779L340 949L413 914L307 755Z" />
<glyph unicode="&#xce;" glyph-name="Icircumflex" d="M84 0V67H258V631H84V698H516V631H342V67H516V0H84ZM350 935L461 792L416 761L299 878L182 761L139 792L250 935H350Z" />
<glyph unicode="&#xcf;" glyph-name="Idieresis" d="M84 0V67H258V631H84V698H516V631H342V67H516V0H84ZM207 788Q176 788 163 801T150 834V848Q150 868 163 881T207 894Q238 894 251 881T264 848V834Q264 814 251 801T207 788ZM393 788Q362 788 349 801T336 834V848Q336
868 349 881T393 894Q424 894 437 881T450 848V834Q450 814 437 801T393 788Z" />
<glyph unicode="&#xd0;" glyph-name="Eth" d="M102 336H22V400H102V698H290Q418 698 481 610T544 349Q544 176 481 88T290 0H102V336ZM286 73Q370 73 412 131T455 295V403Q455 509 413 567T286 625H186V400H327V336H186V73H286Z" />
<glyph unicode="&#xd1;" glyph-name="Ntilde" d="M163 591H156V0H80V698H199L437 113H444V698H520V0H401L163 591ZM373 782Q347 782 328 791T293 808Q269 821 253 826T223 832Q206 832 193 825T165 805L132 845Q146 865 169 881T227 898Q253 898 272 889T307 872Q331
859 347 854T377 848Q394 848 407 855T435 875L468 835Q454 815 431 799T373 782Z" />
<glyph unicode="&#xd2;" glyph-name="Ograve" d="M300 -12Q236 -12 190 12T114 83T70 196T56 349Q56 434 70 501T114 615T190 685T300 710Q364 710 410 686T486 615T530 502T544 349Q544 263 530 196T486 83T410 13T300 -12ZM300 61Q342 61 371 77T419 124T446
196T455 292V406Q455 458 447 501T419 574T371 620T300 637Q258 637 229 621T181 574T154 501T145 406V292Q145 239 153 197T181 124T229 78T300 61ZM187 914L260 949L345 779L293 755L187 914Z" />
<glyph unicode="&#xd3;" glyph-name="Oacute" d="M300 -12Q236 -12 190 12T114 83T70 196T56 349Q56 434 70 501T114 615T190 685T300 710Q364 710 410 686T486 615T530 502T544 349Q544 263 530 196T486 83T410 13T300 -12ZM300 61Q342 61 371 77T419 124T446
196T455 292V406Q455 458 447 501T419 574T371 620T300 637Q258 637 229 621T181 574T154 501T145 406V292Q145 239 153 197T181 124T229 78T300 61ZM307 755L255 779L340 949L413 914L307 755Z" />
<glyph unicode="&#xd4;" glyph-name="Ocircumflex" d="M300 -12Q236 -12 190 12T114 83T70 196T56 349Q56 434 70 501T114 615T190 685T300 710Q364 710 410 686T486 615T530 502T544 349Q544 263 530 196T486 83T410 13T300 -12ZM300 61Q342 61 371 77T419 124T446
196T455 292V406Q455 458 447 501T419 574T371 620T300 637Q258 637 229 621T181 574T154 501T145 406V292Q145 239 153 197T181 124T229 78T300 61ZM350 935L461 792L416 761L299 878L182 761L139 792L250 935H350Z" />
<glyph unicode="&#xd5;" glyph-name="Otilde" d="M300 -12Q236 -12 190 12T114 83T70 196T56 349Q56 434 70 501T114 615T190 685T300 710Q364 710 410 686T486 615T530 502T544 349Q544 263 530 196T486 83T410 13T300 -12ZM300 61Q342 61 371 77T419 124T446
196T455 292V406Q455 458 447 501T419 574T371 620T300 637Q258 637 229 621T181 574T154 501T145 406V292Q145 239 153 197T181 124T229 78T300 61ZM373 782Q347 782 328 791T293 808Q269 821 253 826T223 832Q206 832 193 825T165 805L132 845Q146 865 169 881T227
898Q253 898 272 889T307 872Q331 859 347 854T377 848Q394 848 407 855T435 875L468 835Q454 815 431 799T373 782Z" />
<glyph unicode="&#xd6;" glyph-name="Odieresis" d="M300 -12Q236 -12 190 12T114 83T70 196T56 349Q56 434 70 501T114 615T190 685T300 710Q364 710 410 686T486 615T530 502T544 349Q544 263 530 196T486 83T410 13T300 -12ZM300 61Q342 61 371 77T419 124T446
196T455 292V406Q455 458 447 501T419 574T371 620T300 637Q258 637 229 621T181 574T154 501T145 406V292Q145 239 153 197T181 124T229 78T300 61ZM207 788Q176 788 163 801T150 834V848Q150 868 163 881T207 894Q238 894 251 881T264 848V834Q264 814 251 801T207
788ZM393 788Q362 788 349 801T336 834V848Q336 868 349 881T393 894Q424 894 437 881T450 848V834Q450 814 437 801T393 788Z" />
<glyph unicode="&#xd7;" glyph-name="multiply" d="M300 256L137 93L88 142L251 305L88 468L137 517L300 354L463 517L512 468L349 305L512 142L463 93L300 256Z" />
<glyph unicode="&#xd8;" glyph-name="Oslash" d="M300 -12Q209 -12 154 36L107 -44L47 -8L107 94Q81 140 69 204T56 349Q56 434 70 501T114 615T190 685T300 710Q390 710 446 662L493 742L553 706L493 604Q519 558 531 494T544 349Q544 263 530 196T486 83T410
13T300 -12ZM145 292Q145 258 148 229T159 174L407 591Q388 613 362 625T300 637Q258 637 229 621T181 574T154 501T145 406V292ZM300 61Q342 61 371 77T419 124T446 196T455 292V406Q455 440 452 469T441 524L193 107Q212 85 238 73T300 61Z" />
<glyph unicode="&#xd9;" glyph-name="Ugrave" d="M164 698V279Q164 228 167 188T183 120T223 76T300 61Q349 61 376 76T417 119T433 188T436 279V698H520V299Q520 221 513 163T482 66T415 8T300 -12Q229 -12 186 7T119 66T88 163T80 299V698H164ZM187 914L260
949L345 779L293 755L187 914Z" />
<glyph unicode="&#xda;" glyph-name="Uacute" d="M164 698V279Q164 228 167 188T183 120T223 76T300 61Q349 61 376 76T417 119T433 188T436 279V698H520V299Q520 221 513 163T482 66T415 8T300 -12Q229 -12 186 7T119 66T88 163T80 299V698H164ZM307 755L255
779L340 949L413 914L307 755Z" />
<glyph unicode="&#xdb;" glyph-name="Ucircumflex" d="M164 698V279Q164 228 167 188T183 120T223 76T300 61Q349 61 376 76T417 119T433 188T436 279V698H520V299Q520 221 513 163T482 66T415 8T300 -12Q229 -12 186 7T119 66T88 163T80 299V698H164ZM350 935L461
792L416 761L299 878L182 761L139 792L250 935H350Z" />
<glyph unicode="&#xdc;" glyph-name="Udieresis" d="M164 698V279Q164 228 167 188T183 120T223 76T300 61Q349 61 376 76T417 119T433 188T436 279V698H520V299Q520 221 513 163T482 66T415 8T300 -12Q229 -12 186 7T119 66T88 163T80 299V698H164ZM207 788Q176
788 163 801T150 834V848Q150 868 163 881T207 894Q238 894 251 881T264 848V834Q264 814 251 801T207 788ZM393 788Q362 788 349 801T336 834V848Q336 868 349 881T393 894Q424 894 437 881T450 848V834Q450 814 437 801T393 788Z" />
<glyph unicode="&#xdd;" glyph-name="Yacute" d="M258 0V274L17 698H113L213 516L298 357H302L389 516L489 698H583L342 274V0H258ZM307 755L255 779L340 949L413 914L307 755Z" />
<glyph unicode="&#xde;" glyph-name="Thorn" d="M90 0V698H174V553H344Q441 553 492 500T543 354Q543 262 492 209T344 155H174V0H90ZM174 228H344Q397 228 426 254T456 328V380Q456 428 427 454T344 480H174V228Z" />
<glyph unicode="&#xdf;" glyph-name="germandbls" d="M102 0V622Q102 674 129 707T216 740H353V671H182V516H525V437L352 212Q455 205 513 157T572 14Q572 -38 554 -78T501 -145T419 -186T310 -200H244V-132H310Q400 -132 443 -100T487 3V28Q487 95 441 123T292
152H276V220L452 448H182V0H102Z" />
<glyph unicode="&#xe0;" glyph-name="agrave" d="M495 0Q448 0 428 24T403 84H398Q381 39 344 14T243 -12Q162 -12 114 30T66 145Q66 217 118 256T288 295H398V346Q398 403 366 431T275 460Q223 460 190 440T137 384L83 424Q93 444 110 463T152 496T209 519T280
528Q371 528 424 482T478 354V70H550V0H495ZM257 55Q288 55 313 62T358 82T387 112T398 150V235H288Q216 235 183 215T150 157V136Q150 96 178 76T257 55ZM427 744L500 779L585 609L533 585L427 744Z" />
<glyph unicode="&#xe1;" glyph-name="aacute" d="M495 0Q448 0 428 24T403 84H398Q381 39 344 14T243 -12Q162 -12 114 30T66 145Q66 217 118 256T288 295H398V346Q398 403 366 431T275 460Q223 460 190 440T137 384L83 424Q93 444 110 463T152 496T209 519T280
528Q371 528 424 482T478 354V70H550V0H495ZM257 55Q288 55 313 62T358 82T387 112T398 150V235H288Q216 235 183 215T150 157V136Q150 96 178 76T257 55ZM547 585L495 609L580 779L653 744L547 585Z" />
<glyph unicode="&#xe2;" glyph-name="acircumflex" d="M495 0Q448 0 428 24T403 84H398Q381 39 344 14T243 -12Q162 -12 114 30T66 145Q66 217 118 256T288 295H398V346Q398 403 366 431T275 460Q223 460 190 440T137 384L83 424Q93 444 110 463T152 496T209 519T280
528Q371 528 424 482T478 354V70H550V0H495ZM257 55Q288 55 313 62T358 82T387 112T398 150V235H288Q216 235 183 215T150 157V136Q150 96 178 76T257 55ZM590 765L701 622L656 591L539 708L422 591L379 622L490 765H590Z" />
<glyph unicode="&#xe3;" glyph-name="atilde" d="M495 0Q448 0 428 24T403 84H398Q381 39 344 14T243 -12Q162 -12 114 30T66 145Q66 217 118 256T288 295H398V346Q398 403 366 431T275 460Q223 460 190 440T137 384L83 424Q93 444 110 463T152 496T209 519T280
528Q371 528 424 482T478 354V70H550V0H495ZM257 55Q288 55 313 62T358 82T387 112T398 150V235H288Q216 235 183 215T150 157V136Q150 96 178 76T257 55ZM613 612Q587 612 568 621T533 638Q509 651 493 656T463 662Q446 662 433 655T405 635L372 675Q386 695 409
711T467 728Q493 728 512 719T547 702Q571 689 587 684T617 678Q634 678 647 685T675 705L708 665Q694 645 671 629T613 612Z" />
<glyph unicode="&#xe4;" glyph-name="adieresis" d="M495 0Q448 0 428 24T403 84H398Q381 39 344 14T243 -12Q162 -12 114 30T66 145Q66 217 118 256T288 295H398V346Q398 403 366 431T275 460Q223 460 190 440T137 384L83 424Q93 444 110 463T152 496T209 519T280
528Q371 528 424 482T478 354V70H550V0H495ZM257 55Q288 55 313 62T358 82T387 112T398 150V235H288Q216 235 183 215T150 157V136Q150 96 178 76T257 55ZM447 618Q416 618 403 631T390 664V678Q390 698 403 711T447 724Q478 724 491 711T504 678V664Q504 644 491
631T447 618ZM633 618Q602 618 589 631T576 664V678Q576 698 589 711T633 724Q664 724 677 711T690 678V664Q690 644 677 631T633 618Z" />
<glyph unicode="&#xe5;" glyph-name="aring" d="M495 0Q448 0 428 24T403 84H398Q381 39 344 14T243 -12Q162 -12 114 30T66 145Q66 217 118 256T288 295H398V346Q398 403 366 431T275 460Q223 460 190 440T137 384L83 424Q93 444 110 463T152 496T209 519T280
528Q371 528 424 482T478 354V70H550V0H495ZM257 55Q288 55 313 62T358 82T387 112T398 150V235H288Q216 235 183 215T150 157V136Q150 96 178 76T257 55ZM540 576Q516 576 495 584T458 608T433 645T424 691Q424 716 433 737T457 773T494 797T540 806Q564 806 585
798T622 774T647 737T656 691Q656 666 647 645T623 609T586 585T540 576ZM540 625Q567 625 582 639T598 680V702Q598 728 583 742T540 757Q513 757 498 743T482 702V680Q482 654 497 640T540 625Z" />
<glyph unicode="&#xe6;" glyph-name="ae" d="M141 -12Q84 -12 47 26T10 138Q10 216 55 255T188 295H251V348Q251 415 230 441T170 468Q132 468 111 446T75 389L22 422Q30 442 43 461T75 495T118 519T173 528Q218 528 249 508T297 450H300Q320 493 352 510T424
528Q502 528 542 469T582 292V238H324V213Q324 142 348 97T420 52Q439 52 454 59T481 79T501 108T516 141L574 114Q566 91 553 69T520 28T475 -1T418 -12Q367 -12 330 18T272 102H269Q255 43 222 16T141 -12ZM155 50Q179 50 197 58T227 81T245 114T251 154V238H199Q144
238 114 218T83 152V137Q83 96 99 73T155 50ZM420 470Q374 470 349 436T324 329V295H516V329Q516 401 491 435T420 470Z" />
<glyph unicode="&#xe7;" glyph-name="ccedilla" d="M317 528Q392 528 439 495T508 409L444 375Q430 415 398 437T317 459Q282 459 255 448T208 415T180 365T170 302V214Q170 180 179 151T208 101T255 69T319 57Q371 57 405 81T459 147L516 108Q493 57 447 24T326
-12L316 -61L319 -64Q338 -58 358 -58Q387 -58 406 -75T426 -124Q426 -145 417 -161T393 -187T357 -202T315 -207Q274 -207 251 -194T216 -166L254 -125Q263 -136 278 -144T315 -153Q334 -153 346 -146T359 -122Q359 -108 346 -98T291 -81L263 -77L277 -9Q185 5
135 76T84 258Q84 319 100 369T146 454T219 509T317 528Z" />
<glyph unicode="&#xe8;" glyph-name="egrave" d="M309 -12Q253 -12 209 7T133 61T84 146T67 257Q67 319 84 369T133 454T207 509T304 528Q356 528 398 509T471 457T517 377T533 276V238H151V214Q151 180 162 151T193 101T243 69T309 57Q361 57 399 81T457 147L516
107Q493 55 440 22T309 -12ZM304 462Q271 462 243 450T195 417T163 368T151 305V298H447V309Q447 343 437 371T408 419T363 451T304 462ZM189 744L262 779L347 609L295 585L189 744Z" />
<glyph unicode="&#xe9;" glyph-name="eacute" d="M309 -12Q253 -12 209 7T133 61T84 146T67 257Q67 319 84 369T133 454T207 509T304 528Q356 528 398 509T471 457T517 377T533 276V238H151V214Q151 180 162 151T193 101T243 69T309 57Q361 57 399 81T457 147L516
107Q493 55 440 22T309 -12ZM304 462Q271 462 243 450T195 417T163 368T151 305V298H447V309Q447 343 437 371T408 419T363 451T304 462ZM309 585L257 609L342 779L415 744L309 585Z" />
<glyph unicode="&#xea;" glyph-name="ecircumflex" d="M309 -12Q253 -12 209 7T133 61T84 146T67 257Q67 319 84 369T133 454T207 509T304 528Q356 528 398 509T471 457T517 377T533 276V238H151V214Q151 180 162 151T193 101T243 69T309 57Q361 57 399 81T457
147L516 107Q493 55 440 22T309 -12ZM304 462Q271 462 243 450T195 417T163 368T151 305V298H447V309Q447 343 437 371T408 419T363 451T304 462ZM352 765L463 622L418 591L301 708L184 591L141 622L252 765H352Z" />
<glyph unicode="&#xeb;" glyph-name="edieresis" d="M309 -12Q253 -12 209 7T133 61T84 146T67 257Q67 319 84 369T133 454T207 509T304 528Q356 528 398 509T471 457T517 377T533 276V238H151V214Q151 180 162 151T193 101T243 69T309 57Q361 57 399 81T457 147L516
107Q493 55 440 22T309 -12ZM304 462Q271 462 243 450T195 417T163 368T151 305V298H447V309Q447 343 437 371T408 419T363 451T304 462ZM209 618Q178 618 165 631T152 664V678Q152 698 165 711T209 724Q240 724 253 711T266 678V664Q266 644 253 631T209 618ZM395
618Q364 618 351 631T338 664V678Q338 698 351 711T395 724Q426 724 439 711T452 678V664Q452 644 439 631T395 618Z" />
<glyph unicode="&#xec;" glyph-name="igrave" d="M106 68H292V448H106V516H372V68H546V0H106V68ZM219 744L292 779L377 609L325 585L219 744Z" />
<glyph unicode="&#xed;" glyph-name="iacute" d="M106 68H292V448H106V516H372V68H546V0H106V68ZM339 585L287 609L372 779L445 744L339 585Z" />
<glyph unicode="&#xee;" glyph-name="icircumflex" d="M106 68H292V448H106V516H372V68H546V0H106V68ZM382 765L493 622L448 591L331 708L214 591L171 622L282 765H382Z" />
<glyph unicode="&#xef;" glyph-name="idieresis" d="M106 68H292V448H106V516H372V68H546V0H106V68ZM239 618Q208 618 195 631T182 664V678Q182 698 195 711T239 724Q270 724 283 711T296 678V664Q296 644 283 631T239 618ZM425 618Q394 618 381 631T368 664V678Q368
698 381 711T425 724Q456 724 469 711T482 678V664Q482 644 469 631T425 618Z" />
<glyph unicode="&#xf0;" glyph-name="eth" d="M459 708L372 647Q403 616 432 577T484 491T520 388T534 266Q534 126 472 57T303 -12Q247 -12 203 6T129 58T82 139T66 246Q66 305 82 352T126 434T194 486T280 504Q341 504 381 476T445 408L449 410Q424 472 391
520T315 608L216 538L178 583L270 647Q237 673 201 696T127 740H253Q270 729 288 717T327 688L421 753L459 708ZM300 57Q367 57 408 95T449 211V281Q449 359 408 397T300 435Q233 435 192 397T151 281V211Q151 133 192 95T300 57Z" />
<glyph unicode="&#xf1;" glyph-name="ntilde" d="M98 0V516H178V432H182Q190 451 202 468T231 499T273 520T329 528Q410 528 459 477T508 331V0H428V317Q428 388 397 422T306 457Q282 457 259 451T218 433T189 402T178 358V0H98ZM376 612Q350 612 331 621T296
638Q272 651 256 656T226 662Q209 662 196 655T168 635L135 675Q149 695 172 711T230 728Q256 728 275 719T310 702Q334 689 350 684T380 678Q397 678 410 685T438 705L471 665Q457 645 434 629T376 612Z" />
<glyph unicode="&#xf2;" glyph-name="ograve" d="M300 -12Q246 -12 203 7T129 61T82 146T66 258Q66 319 82 369T128 454T202 509T300 528Q354 528 397 509T471 455T518 369T534 258Q534 196 518 147T472 62T398 7T300 -12ZM300 57Q367 57 408 97T449 221V295Q449
379 408 419T300 459Q233 459 192 419T151 295V221Q151 137 192 97T300 57ZM187 744L260 779L345 609L293 585L187 744Z" />
<glyph unicode="&#xf3;" glyph-name="oacute" d="M300 -12Q246 -12 203 7T129 61T82 146T66 258Q66 319 82 369T128 454T202 509T300 528Q354 528 397 509T471 455T518 369T534 258Q534 196 518 147T472 62T398 7T300 -12ZM300 57Q367 57 408 97T449 221V295Q449
379 408 419T300 459Q233 459 192 419T151 295V221Q151 137 192 97T300 57ZM307 585L255 609L340 779L413 744L307 585Z" />
<glyph unicode="&#xf4;" glyph-name="ocircumflex" d="M300 -12Q246 -12 203 7T129 61T82 146T66 258Q66 319 82 369T128 454T202 509T300 528Q354 528 397 509T471 455T518 369T534 258Q534 196 518 147T472 62T398 7T300 -12ZM300 57Q367 57 408 97T449 221V295Q449
379 408 419T300 459Q233 459 192 419T151 295V221Q151 137 192 97T300 57ZM350 765L461 622L416 591L299 708L182 591L139 622L250 765H350Z" />
<glyph unicode="&#xf5;" glyph-name="otilde" d="M300 -12Q246 -12 203 7T129 61T82 146T66 258Q66 319 82 369T128 454T202 509T300 528Q354 528 397 509T471 455T518 369T534 258Q534 196 518 147T472 62T398 7T300 -12ZM300 57Q367 57 408 97T449 221V295Q449
379 408 419T300 459Q233 459 192 419T151 295V221Q151 137 192 97T300 57ZM373 612Q347 612 328 621T293 638Q269 651 253 656T223 662Q206 662 193 655T165 635L132 675Q146 695 169 711T227 728Q253 728 272 719T307 702Q331 689 347 684T377 678Q394 678 407
685T435 705L468 665Q454 645 431 629T373 612Z" />
<glyph unicode="&#xf6;" glyph-name="odieresis" d="M300 -12Q246 -12 203 7T129 61T82 146T66 258Q66 319 82 369T128 454T202 509T300 528Q354 528 397 509T471 455T518 369T534 258Q534 196 518 147T472 62T398 7T300 -12ZM300 57Q367 57 408 97T449 221V295Q449
379 408 419T300 459Q233 459 192 419T151 295V221Q151 137 192 97T300 57ZM207 618Q176 618 163 631T150 664V678Q150 698 163 711T207 724Q238 724 251 711T264 678V664Q264 644 251 631T207 618ZM393 618Q362 618 349 631T336 664V678Q336 698 349 711T393 724Q424
724 437 711T450 678V664Q450 644 437 631T393 618Z" />
<glyph unicode="&#xf7;" glyph-name="divide" d="M62 271V339H538V271H62ZM300 52Q265 52 252 66T238 100V122Q238 142 251 156T300 170Q335 170 348 156T362 122V100Q362 80 349 66T300 52ZM300 440Q265 440 252 454T238 488V510Q238 530 251 544T300 558Q335
558 348 544T362 510V488Q362 468 349 454T300 440Z" />
<glyph unicode="&#xf8;" glyph-name="oslash" d="M47 -6L116 78Q92 113 79 158T66 258Q66 319 82 369T128 454T202 509T300 528Q344 528 380 515T445 479L508 556L553 522L484 438Q508 403 521 358T534 258Q534 196 518 147T472 62T398 7T300 -12Q256 -12 220
1T155 37L92 -40L47 -6ZM300 459Q233 459 192 419T151 295V221Q151 171 166 138L401 425Q364 459 300 459ZM300 57Q367 57 408 97T449 221V295Q449 345 434 378L199 91Q236 57 300 57Z" />
<glyph unicode="&#xf9;" glyph-name="ugrave" d="M422 84H418Q410 65 398 48T369 17T327 -4T271 -12Q190 -12 141 39T92 185V516H172V199Q172 128 203 94T294 59Q318 59 341 65T382 83T411 113T422 158V516H502V0H422V84ZM441 744L514 779L599 609L547 585L441 744Z" />
<glyph unicode="&#xfa;" glyph-name="uacute" d="M422 84H418Q410 65 398 48T369 17T327 -4T271 -12Q190 -12 141 39T92 185V516H172V199Q172 128 203 94T294 59Q318 59 341 65T382 83T411 113T422 158V516H502V0H422V84ZM561 585L509 609L594 779L667 744L561 585Z" />
<glyph unicode="&#xfb;" glyph-name="ucircumflex" d="M422 84H418Q410 65 398 48T369 17T327 -4T271 -12Q190 -12 141 39T92 185V516H172V199Q172 128 203 94T294 59Q318 59 341 65T382 83T411 113T422 158V516H502V0H422V84ZM604 765L715 622L670 591L553 708L436
591L393 622L504 765H604Z" />
<glyph unicode="&#xfc;" glyph-name="udieresis" d="M422 84H418Q410 65 398 48T369 17T327 -4T271 -12Q190 -12 141 39T92 185V516H172V199Q172 128 203 94T294 59Q318 59 341 65T382 83T411 113T422 158V516H502V0H422V84ZM461 618Q430 618 417 631T404 664V678Q404
698 417 711T461 724Q492 724 505 711T518 678V664Q518 644 505 631T461 618ZM647 618Q616 618 603 631T590 664V678Q590 698 603 711T647 724Q678 724 691 711T704 678V664Q704 644 691 631T647 618Z" />
<glyph unicode="&#xfd;" glyph-name="yacute" d="M467 516H547L291 -113Q282 -135 271 -151T245 -178T209 -194T159 -200H83V-132H203L261 10L53 516H135L222 300L299 104H303L380 300L467 516ZM307 585L255 609L340 779L413 744L307 585Z" />
<glyph unicode="&#xfe;" glyph-name="thorn" d="M95 740H175V432H179Q229 528 338 528Q433 528 486 457T540 258Q540 130 487 59T338 -12Q229 -12 179 84H175V-200H95V740ZM307 59Q377 59 415 101T454 214V302Q454 372 416 414T307 457Q280 457 256 450T214 430T186
397T175 351V165Q175 139 185 120T214 87T256 66T307 59Z" />
<glyph unicode="&#xff;" glyph-name="ydieresis" d="M467 516H547L291 -113Q282 -135 271 -151T245 -178T209 -194T159 -200H83V-132H203L261 10L53 516H135L222 300L299 104H303L380 300L467 516ZM207 618Q176 618 163 631T150 664V678Q150 698 163 711T207 724Q238
724 251 711T264 678V664Q264 644 251 631T207 618ZM393 618Q362 618 349 631T336 664V678Q336 698 349 711T393 724Q424 724 437 711T450 678V664Q450 644 437 631T393 618Z" />
<glyph unicode="&#x2013;" glyph-name="endash" d="M60 267V341H540V267H60Z" />
<glyph unicode="&#x2014;" glyph-name="emdash" d="M0 267V341H600V267H0Z" />
<glyph unicode="&#x2018;" glyph-name="quoteleft" d="M310 740H377L324 463H195L310 740Z" />
<glyph unicode="&#x2019;" glyph-name="quoteright" d="M276 740H405L290 463H223L276 740Z" />
<glyph unicode="&#x201a;" glyph-name="quotesinglbase" d="M257 136H386L271 -141H204L257 136Z" />
<glyph unicode="&#x201c;" glyph-name="quotedblleft" d="M453 740H520L467 463H338L453 740ZM436 740H503L450 463H321L436 740Z" />
<glyph unicode="&#x201d;" glyph-name="quotedblright" d="M419 740H548L433 463H366L419 740ZM402 740H531L416 463H349L402 740Z" />
<glyph unicode="&#x201e;" glyph-name="quotedblbase" d="M419 136H548L433 -141H366L419 136ZM402 136H531L416 -141H349L402 136Z" />
<glyph unicode="&#x2022;" glyph-name="bullet" d="M300 186Q233 186 206 216T178 290V318Q178 362 205 392T300 422Q367 422 394 392T422 318V290Q422 246 395 216T300 186Z" />
<glyph unicode="&#x2039;" glyph-name="guilsinglleft" d="M376 56L170 230V310L376 484L401 427L253 270L401 113L376 56Z" />
<glyph unicode="&#x203a;" glyph-name="guilsinglright" d="M199 113L347 270L199 427L224 484L430 310V230L224 56L199 113Z" />
</font>
</defs>
</svg>
